<mxfile host="Electron" agent="Mozilla/5.0 (Windows NT 10.0; Win64; x64) AppleWebKit/537.36 (KHTML, like Gecko) draw.io/24.7.8 Chrome/128.0.6613.36 Electron/32.0.1 Safari/537.36" version="24.7.8">
  <diagram name="Page-1" id="XaAJK7287nfvG3IUYAX4">
    <mxGraphModel dx="887" dy="1010" grid="1" gridSize="10" guides="1" tooltips="1" connect="1" arrows="1" fold="1" page="1" pageScale="1" pageWidth="850" pageHeight="1100" math="0" shadow="0">
      <root>
        <mxCell id="0" />
        <mxCell id="1" parent="0" />
        <mxCell id="EfeDmqthlQ6lufMdcrrF-1" value="" style="edgeStyle=orthogonalEdgeStyle;rounded=0;orthogonalLoop=1;jettySize=auto;html=1;" edge="1" parent="1" source="EfeDmqthlQ6lufMdcrrF-2">
          <mxGeometry relative="1" as="geometry">
            <mxPoint x="450" y="140" as="targetPoint" />
          </mxGeometry>
        </mxCell>
        <mxCell id="EfeDmqthlQ6lufMdcrrF-2" value="Start" style="rounded=1;whiteSpace=wrap;html=1;" vertex="1" parent="1">
          <mxGeometry x="390" y="30" width="120" height="60" as="geometry" />
        </mxCell>
        <mxCell id="EfeDmqthlQ6lufMdcrrF-3" value="" style="edgeStyle=orthogonalEdgeStyle;rounded=0;orthogonalLoop=1;jettySize=auto;html=1;" edge="1" parent="1" source="EfeDmqthlQ6lufMdcrrF-4" target="EfeDmqthlQ6lufMdcrrF-8">
          <mxGeometry relative="1" as="geometry" />
        </mxCell>
        <mxCell id="EfeDmqthlQ6lufMdcrrF-4" value="&quot;How much pizza slices? &quot;" style="shape=card;whiteSpace=wrap;html=1;" vertex="1" parent="1">
          <mxGeometry x="370" y="240" width="150" height="60" as="geometry" />
        </mxCell>
        <mxCell id="EfeDmqthlQ6lufMdcrrF-5" value="" style="edgeStyle=orthogonalEdgeStyle;rounded=0;orthogonalLoop=1;jettySize=auto;html=1;" edge="1" parent="1" target="EfeDmqthlQ6lufMdcrrF-4">
          <mxGeometry relative="1" as="geometry">
            <mxPoint x="450.0000000000002" y="200" as="sourcePoint" />
          </mxGeometry>
        </mxCell>
        <mxCell id="EfeDmqthlQ6lufMdcrrF-7" value="" style="edgeStyle=orthogonalEdgeStyle;rounded=0;orthogonalLoop=1;jettySize=auto;html=1;" edge="1" parent="1" source="EfeDmqthlQ6lufMdcrrF-8" target="EfeDmqthlQ6lufMdcrrF-10">
          <mxGeometry relative="1" as="geometry" />
        </mxCell>
        <mxCell id="EfeDmqthlQ6lufMdcrrF-8" value="&lt;div style=&quot;background-color:#1e1f22;color:#bcbec4&quot;&gt;&lt;pre style=&quot;font-family:&#39;JetBrains Mono&#39;,monospace;font-size:9.8pt;&quot;&gt;slices // friends&lt;/pre&gt;&lt;/div&gt;" style="rounded=0;whiteSpace=wrap;html=1;" vertex="1" parent="1">
          <mxGeometry x="390" y="360" width="120" height="60" as="geometry" />
        </mxCell>
        <mxCell id="EfeDmqthlQ6lufMdcrrF-9" value="" style="edgeStyle=orthogonalEdgeStyle;rounded=0;orthogonalLoop=1;jettySize=auto;html=1;" edge="1" parent="1" source="EfeDmqthlQ6lufMdcrrF-10" target="EfeDmqthlQ6lufMdcrrF-12">
          <mxGeometry relative="1" as="geometry" />
        </mxCell>
        <mxCell id="EfeDmqthlQ6lufMdcrrF-10" value="slices % friends" style="rounded=0;whiteSpace=wrap;html=1;" vertex="1" parent="1">
          <mxGeometry x="390" y="470" width="120" height="60" as="geometry" />
        </mxCell>
        <mxCell id="EfeDmqthlQ6lufMdcrrF-11" value="" style="edgeStyle=orthogonalEdgeStyle;rounded=0;orthogonalLoop=1;jettySize=auto;html=1;" edge="1" parent="1" source="EfeDmqthlQ6lufMdcrrF-12" target="EfeDmqthlQ6lufMdcrrF-13">
          <mxGeometry relative="1" as="geometry" />
        </mxCell>
        <mxCell id="EfeDmqthlQ6lufMdcrrF-12" value="total will get + total will left" style="shape=document;whiteSpace=wrap;html=1;boundedLbl=1;" vertex="1" parent="1">
          <mxGeometry x="390" y="620" width="120" height="80" as="geometry" />
        </mxCell>
        <mxCell id="EfeDmqthlQ6lufMdcrrF-13" value="End" style="rounded=1;whiteSpace=wrap;html=1;" vertex="1" parent="1">
          <mxGeometry x="390" y="760" width="120" height="60" as="geometry" />
        </mxCell>
        <mxCell id="EfeDmqthlQ6lufMdcrrF-14" value="friends: (int)" style="shape=card;whiteSpace=wrap;html=1;" vertex="1" parent="1">
          <mxGeometry x="370" y="140" width="150" height="60" as="geometry" />
        </mxCell>
      </root>
    </mxGraphModel>
  </diagram>
</mxfile>
